<svg width="203" height="36" viewBox="0 0 203 36" fill="none" xmlns="http://www.w3.org/2000/svg">
<path d="M182.163 35.7237C174.687 35.7237 167.779 31.9689 163.684 25.6794C162.811 24.3395 163.189 22.5451 164.527 21.6719C165.865 20.7987 167.657 21.1763 168.53 22.5162C171.553 27.1597 176.649 29.9317 182.163 29.9317C187.675 29.9317 192.772 27.1597 195.796 22.5162C196.668 21.1763 198.461 20.7984 199.798 21.6719C201.137 22.5454 201.514 24.3395 200.642 25.6794C196.546 31.9689 189.638 35.7237 182.163 35.7237ZM172.296 20.498C175.057 20.498 177.593 19.5168 179.081 17.8726C179.658 17.2394 179.915 16.6123 179.915 15.8405C179.915 14.4292 178.914 13.4429 177.478 13.4429C176.594 13.4429 176.078 13.7283 175.648 14.0392C175.027 14.5052 173.989 15.2842 172.337 15.2842C169.284 15.2842 167.917 12.8518 167.917 10.4419C167.917 8.03209 169.284 5.6007 172.337 5.6007C173.994 5.6007 175.031 6.38072 175.655 6.85078C176.079 7.15663 176.595 7.44092 177.479 7.44092C178.914 7.44092 179.915 6.45564 179.915 5.04443C179.915 4.26031 179.666 3.65169 179.082 3.01228C177.592 1.36912 175.056 0.387939 172.296 0.387939C166.209 0.387939 161.958 4.52202 161.958 10.4419C161.958 16.3629 166.209 20.498 172.296 20.498ZM182.284 10.4419C182.284 4.70984 186.602 0.387939 192.328 0.387939C198.051 0.387939 202.367 4.70984 202.367 10.4419C202.367 16.175 198.051 20.498 192.328 20.498C186.602 20.498 182.284 16.175 182.284 10.4419ZM192.328 15.2011C195.064 15.2011 196.495 12.8066 196.495 10.4419C196.495 8.07725 195.064 5.68384 192.328 5.68384C189.589 5.68384 188.156 8.07725 188.156 10.4419C188.156 12.8066 189.589 15.2011 192.328 15.2011ZM25.4075 0.387939C23.5685 0.387939 22.0718 1.90897 22.0718 3.77793V14.2106H6.67351V3.77793C6.67351 1.87715 5.23015 0.387939 3.38699 0.387939C1.51923 0.387939 0 1.90897 0 3.77793V31.9303C0 33.7993 1.51923 35.3203 3.38699 35.3203C5.23015 35.3203 6.67351 33.8311 6.67351 31.9303V20.4877H22.0718V31.9303C22.0718 33.7993 23.5685 35.3203 25.4075 35.3203C27.2476 35.3203 28.7443 33.7993 28.7443 31.9303V3.77793C28.7443 1.90897 27.2476 0.387939 25.4075 0.387939ZM64.0433 30.864C64.2586 31.292 64.3693 31.7384 64.3693 32.1818C64.3693 33.7244 63.1781 35.3203 61.1842 35.3203C59.8823 35.3203 59.0448 34.7805 58.3816 33.515L55.5748 27.5007H40.9935L38.1919 33.5037C37.7234 34.3576 36.9884 35.3203 35.3841 35.3203C33.3902 35.3203 32.199 33.7244 32.199 32.1818C32.199 31.7384 32.3097 31.292 32.5291 30.8537L45.4251 2.15734C45.9448 0.999637 46.933 0.387939 48.2841 0.387939C49.6804 0.387939 50.6429 0.98424 51.1452 2.16145L64.0433 30.864ZM48.2841 9.71939L43.4343 21.5767H53.134L48.2841 9.71939ZM96.4939 11.3964C96.4939 17.9742 91.9311 21.901 84.2889 21.901H74.9275V31.9806C74.9275 33.8537 73.4616 35.3203 71.5907 35.3203C69.7199 35.3203 68.255 33.8537 68.255 31.9806V4.13099C68.255 2.25792 69.7199 0.791288 71.5907 0.791288H84.2889C91.9311 0.791291 96.4939 4.75603 96.4939 11.3964ZM85.1459 6.96676H74.9275V15.6742H85.1459C88.3412 15.6742 89.7712 13.5261 89.7712 11.3964C89.7712 9.26267 88.3237 6.96676 85.1459 6.96676ZM128.691 11.3964C128.691 17.9742 124.128 21.901 116.486 21.901H107.124V31.9806C107.124 33.8537 105.658 35.3203 103.788 35.3203C101.917 35.3203 100.452 33.8537 100.452 31.9806V4.13099C100.452 2.25792 101.917 0.791288 103.788 0.791288H116.486C124.128 0.791291 128.691 4.75603 128.691 11.3964ZM117.343 6.96676H107.124V15.6742H117.343C120.538 15.6742 121.968 13.5261 121.968 11.3964C121.968 9.26267 120.521 6.96676 117.343 6.96676ZM156.462 0.387939C155.416 0.387939 154.572 0.835423 153.882 1.75707L144.923 13.9787L135.962 1.75399C135.273 0.835423 134.429 0.387939 133.383 0.387939C131.738 0.387939 130.349 1.82481 130.349 3.52648C130.349 4.1197 130.561 4.77861 130.953 5.39646L141.586 19.9581V31.9303C141.586 33.7993 143.105 35.3203 144.973 35.3203C146.815 35.3203 148.258 33.8311 148.258 31.9303V19.9581L158.892 5.39543C159.286 4.85148 159.496 4.20488 159.496 3.52648C159.496 1.85457 158.078 0.387939 156.462 0.387939Z" fill="#282466"/>
</svg>