<svg width="80" height="80" viewBox="0 0 80 80" fill="none" xmlns="http://www.w3.org/2000/svg">
<circle cx="40" cy="40" r="40" fill="#00C389"/>
<path d="M40 63.5755C31.0301 63.5755 22.7415 59.1319 17.8281 51.6886C16.7813 50.1029 17.2344 47.9793 18.8399 46.9459C20.4457 45.9125 22.5958 46.3594 23.6426 47.9451C27.2702 53.4404 33.385 56.721 40 56.721C46.6148 56.721 52.7299 53.4404 56.3578 47.9451C57.4048 46.3594 59.5555 45.9122 61.1604 46.9459C62.7662 47.9796 63.2191 50.1028 62.1723 51.6886C57.2586 59.1319 48.9697 63.5755 40 63.5755ZM28.1622 45.5566C31.4746 45.5566 34.5176 44.3954 36.3023 42.4496C36.9947 41.7002 37.3035 40.9581 37.3035 40.0447C37.3035 38.3746 36.1018 37.2073 34.3798 37.2073C33.3183 37.2073 32.6996 37.545 32.183 37.913C31.4389 38.4644 30.1929 39.3863 28.2114 39.3863C24.5473 39.3863 22.9077 36.5077 22.9077 33.6558C22.9077 30.8038 24.5473 27.9264 28.2114 27.9264C30.1991 27.9264 31.4438 28.8495 32.1917 29.4058C32.7009 29.7678 33.3196 30.1042 34.381 30.1042C36.1018 30.1042 37.3035 28.9382 37.3035 27.2681C37.3035 26.3401 37.0046 25.6198 36.3035 24.8631C34.5163 22.9185 31.4733 21.7573 28.1622 21.7573C20.8586 21.7573 15.7578 26.6498 15.7578 33.6558C15.7578 40.6629 20.8586 45.5566 28.1622 45.5566ZM40.146 33.6558C40.146 26.8721 45.3267 21.7573 52.1974 21.7573C59.0644 21.7573 64.2427 26.8721 64.2427 33.6558C64.2427 40.4406 59.0644 45.5566 52.1974 45.5566C45.3267 45.5566 40.146 40.4406 40.146 33.6558ZM52.1974 39.288C55.4802 39.288 57.1973 36.4542 57.1973 33.6558C57.1973 30.8573 55.4802 28.0248 52.1974 28.0248C48.9109 28.0248 47.1913 30.8573 47.1913 33.6558C47.1913 36.4542 48.9109 39.288 52.1974 39.288Z" fill="white"/>
</svg>